<svg width="400" height="155" viewBox="0 0 400 155" fill="none" xmlns="http://www.w3.org/2000/svg">
<path d="M4.77816 4.77817H10.9215V10.9215H4.77816V4.77817Z" fill="black"/>
<path d="M4.77816 143.345H10.9215V149.488H4.77816V143.345Z" fill="black"/>
<path d="M389.079 4.77817H395.222V10.9215H389.079V4.77817Z" fill="black"/>
<path d="M389.079 143.345H395.222V149.488H389.079V143.345Z" fill="black"/>
<path d="M0 10.2389H5.46075V144.027H0V10.2389Z" fill="black"/>
<path d="M394.539 10.2389H400V144.027H394.539V10.2389Z" fill="black"/>
<path d="M389.761 148.805V154.266L10.2389 154.266V148.805L389.761 148.805Z" fill="black"/>
<path d="M389.761 1.65894e-05V5.46078L10.2389 5.46077V0L389.761 1.65894e-05Z" fill="black"/>
<path d="M5.46069 10.9215H15.017V143.345H5.46069V10.9215Z" fill="#5A5D5E"/>
<path d="M394.539 143.345H384.983V10.9215L394.539 10.9215V143.345Z" fill="#5A5D5E"/>
<path d="M389.078 5.46077V15.0171L10.9214 15.0171L10.9214 5.46075L389.078 5.46077Z" fill="#5A5D5E"/>
<path d="M10.9214 148.805L10.9214 139.249L389.078 139.249V148.806L10.9214 148.805Z" fill="#5A5D5E"/>
<rect x="15.0171" y="15.0171" width="369.966" height="124.232" fill="#F7F7F7"/>
<rect x="20.4778" y="20.4778" width="359.044" height="113.311" fill="#9CA5A7"/>
<path d="M103 58.3333H106.333V95H103V58.3333ZM73 91.6667V88.3333H76.3333V91.6667H73ZM73 61.6667V58.3333H96.3333V61.6667H86.3333V71.6667H83V61.6667H73ZM79.6667 88.3333H76.3333V81.6667H79.6667V88.3333ZM79.6667 81.6667V71.6667H83V81.6667H79.6667ZM86.3333 81.6667V71.6667H89.6667V81.6667H86.3333ZM93 88.3333H89.6667V81.6667H93V88.3333ZM93 91.6667V88.3333H96.3333V91.6667H93ZM143 58.3333H146.333V65H149.667V68.3333H146.333V78.3333H143V58.3333ZM113 78.3333V75H123V78.3333H113ZM113 61.6667V58.3333H133V68.3333H129.667V61.6667H113ZM143 91.6667V88.3333H119.667V91.6667H143ZM143 85V81.6667H146.333V95H116.333V81.6667H119.667V85H143ZM126.333 71.6667V75H123V71.6667H126.333ZM126.333 68.3333H129.667V71.6667H126.333V68.3333ZM173.013 58.3333H203.013V71.6667H199.68V61.6667H173.013V58.3333ZM169.68 78.3333V75H196.346V71.6667H199.68V75H206.346V78.3333H189.68V95H186.346V78.3333H169.68ZM209.68 91.6667V58.3333H229.68V91.6667H209.68ZM236.346 95H233.013V58.3333H236.346V75H239.68V58.3333H243.013V95H239.68V78.3333H236.346V95ZM213.013 88.3333H226.346V61.6667H213.013V88.3333ZM279.68 58.3333H283.013V75H286.346V78.3333H283.013V95H279.68V58.3333ZM249.68 68.3333V65H276.346V68.3333H249.68ZM256.346 88.3333H253.013V75H256.346V88.3333ZM256.346 91.6667V88.3333H269.68V91.6667H256.346ZM256.346 75V71.6667H269.68V75H256.346ZM256.346 61.6667V58.3333H269.68V61.6667H256.346ZM269.68 88.3333V75H273.013V88.3333H269.68ZM319.68 58.3333H323.013V95H319.68V58.3333ZM289.68 91.6667V88.3333H296.346V91.6667H289.68ZM289.68 61.6667V58.3333H309.68V75H306.346V61.6667H289.68ZM296.346 88.3333V85H299.68V88.3333H296.346ZM299.68 85V81.6667H303.013V85H299.68ZM303.013 81.6667V75H306.346V81.6667H303.013Z" fill="#5A5D5E"/>
<path d="M101 55.3333H104.333V92H101V55.3333ZM71 88.6667V85.3333H74.3333V88.6667H71ZM71 58.6667V55.3333H94.3333V58.6667H84.3333V68.6667H81V58.6667H71ZM77.6667 85.3333H74.3333V78.6667H77.6667V85.3333ZM77.6667 78.6667V68.6667H81V78.6667H77.6667ZM84.3333 78.6667V68.6667H87.6667V78.6667H84.3333ZM91 85.3333H87.6667V78.6667H91V85.3333ZM91 88.6667V85.3333H94.3333V88.6667H91ZM141 55.3333H144.333V62H147.667V65.3333H144.333V75.3333H141V55.3333ZM111 75.3333V72H121V75.3333H111ZM111 58.6667V55.3333H131V65.3333H127.667V58.6667H111ZM141 88.6667V85.3333H117.667V88.6667H141ZM141 82V78.6667H144.333V92H114.333V78.6667H117.667V82H141ZM124.333 68.6667V72H121V68.6667H124.333ZM124.333 65.3333H127.667V68.6667H124.333V65.3333ZM171.013 55.3333H201.013V68.6667H197.68V58.6667H171.013V55.3333ZM167.68 75.3333V72H194.346V68.6667H197.68V72H204.346V75.3333H187.68V92H184.346V75.3333H167.68ZM207.68 88.6667V55.3333H227.68V88.6667H207.68ZM234.346 92H231.013V55.3333H234.346V72H237.68V55.3333H241.013V92H237.68V75.3333H234.346V92ZM211.013 85.3333H224.346V58.6667H211.013V85.3333ZM277.68 55.3333H281.013V72H284.346V75.3333H281.013V92H277.68V55.3333ZM247.68 65.3333V62H274.346V65.3333H247.68ZM254.346 85.3333H251.013V72H254.346V85.3333ZM254.346 88.6667V85.3333H267.68V88.6667H254.346ZM254.346 72V68.6667H267.68V72H254.346ZM254.346 58.6667V55.3333H267.68V58.6667H254.346ZM267.68 85.3333V72H271.013V85.3333H267.68ZM317.68 55.3333H321.013V92H317.68V55.3333ZM287.68 88.6667V85.3333H294.346V88.6667H287.68ZM287.68 58.6667V55.3333H307.68V72H304.346V58.6667H287.68ZM294.346 85.3333V82H297.68V85.3333H294.346ZM297.68 82V78.6667H301.013V82H297.68ZM301.013 78.6667V72H304.346V78.6667H301.013Z" fill="white"/>
</svg>
