<svg width="400" height="155" viewBox="0 0 400 155" fill="none" xmlns="http://www.w3.org/2000/svg">
<path d="M4.77816 4.77817H10.9215V10.9215H4.77816V4.77817Z" fill="black"/>
<path d="M4.77816 143.345H10.9215V149.488H4.77816V143.345Z" fill="black"/>
<path d="M389.079 4.77817H395.222V10.9215H389.079V4.77817Z" fill="black"/>
<path d="M389.079 143.345H395.222V149.488H389.079V143.345Z" fill="black"/>
<path d="M0 10.2389H5.46075V144.027H0V10.2389Z" fill="black"/>
<path d="M394.539 10.2389H400V144.027H394.539V10.2389Z" fill="black"/>
<path d="M389.761 148.805V154.266L10.2389 154.266V148.805L389.761 148.805Z" fill="black"/>
<path d="M389.761 1.65894e-05V5.46078L10.2389 5.46077V0L389.761 1.65894e-05Z" fill="black"/>
<path d="M5.46069 10.9215H15.017V143.345H5.46069V10.9215Z" fill="#8CA5A9"/>
<path d="M394.539 143.345H384.983V10.9215L394.539 10.9215V143.345Z" fill="#8CA5A9"/>
<path d="M389.078 5.46077V15.0171L10.9214 15.0171L10.9214 5.46075L389.078 5.46077Z" fill="#8CA5A9"/>
<path d="M10.9214 148.805L10.9214 139.249L389.078 139.249V148.806L10.9214 148.805Z" fill="#8CA5A9"/>
<rect x="15.0171" y="15.0171" width="369.966" height="124.232" fill="#F8F8F8"/>
<rect x="20.4778" y="20.4778" width="359.044" height="113.311" fill="#D2DDDF"/>
</svg>
