<svg width="1500" height="1513" viewBox="0 0 1500 1513" fill="none" xmlns="http://www.w3.org/2000/svg">
<path d="M17.9181 46.863H40.9556V107.115H17.9181V46.863Z" fill="black"/>
<path d="M17.9181 1405.88H40.9556V1466.14H17.9181V1405.88Z" fill="black"/>
<path d="M1459.04 46.863H1482.08V107.115H1459.04V46.863Z" fill="black"/>
<path d="M1459.04 1405.88H1482.08V1466.14H1459.04V1405.88Z" fill="black"/>
<path d="M0 100.42H20.4778V1412.58H0V100.42Z" fill="black"/>
<path d="M1479.52 100.42H1500V1412.58H1479.52V100.42Z" fill="black"/>
<path d="M1461.6 1459.44V1513L38.3959 1513V1459.44L1461.6 1459.44Z" fill="black"/>
<path d="M1461.6 0.000162705V53.5578L38.3959 53.5577V0L1461.6 0.000162705Z" fill="black"/>
<path d="M19.9998 67.895H55.8594V1434.69H19.9998V67.895Z" fill="#8CA5A9"/>
<path d="M1480 1434.69H1444.14V67.895L1480 67.895V1434.69Z" fill="#8CA5A9"/>
<path d="M1459.51 11.5324V110.167L40.491 110.167L40.491 11.5322L1459.51 11.5324Z" fill="#8CA5A9"/>
<path d="M40.491 1491.05L40.491 1392.42L1459.51 1392.42V1491.05L40.491 1491.05Z" fill="#8CA5A9"/>
<rect x="56" y="31.7109" width="1388" height="1436.99" fill="#F8F8F8"/>
<rect x="76.9998" y="43.2432" width="1346" height="1403.51" fill="#D2DDDF"/>
</svg>
