<svg width="1500" height="4303" viewBox="0 0 1500 4303" fill="none" xmlns="http://www.w3.org/2000/svg">
<rect x="628" y="271" width="244" height="3925.08" fill="#43D084"/>
<rect x="525" y="4058.74" width="103" height="35.6011" fill="#43D084"/>
<rect width="103" height="35.6011" transform="matrix(-1 0 0 1 975 4058.74)" fill="#43D084"/>
<rect x="556" y="4094.34" width="72" height="35.6011" fill="#43D084"/>
<rect width="72" height="35.6011" transform="matrix(-1 0 0 1 944 4094.34)" fill="#43D084"/>
<rect width="71.2021" height="36" transform="matrix(1.20585e-08 -1 -1 -1.17927e-08 803 4267.4)" fill="#43D084"/>
<rect width="35.6011" height="36" transform="matrix(1.20585e-08 -1 -1 -1.17927e-08 839 4231.8)" fill="#43D084"/>
<rect x="590" y="4129.94" width="38" height="35.6011" fill="#43D084"/>
<rect width="38" height="35.6011" transform="matrix(-1 0 0 1 910 4129.94)" fill="#43D084"/>
<rect x="664" y="4196.2" width="103" height="35.6011" fill="#43D084"/>
<rect x="695" y="4231.8" width="72" height="35.6011" fill="#43D084"/>
<rect x="729" y="4267.4" width="38" height="35.6011" fill="#43D084"/>
<path d="M654 53.6667V48.3333H680.667V37.6667H659.333V16.3333H702V5.66666H659.333V0.333332H707.333V21.6667H664.667V32.3333H707.333V37.6667H686V48.3333H712.667V53.6667H654ZM718 53.6667V48.3333H776.667V53.6667H718ZM723.333 0.333332H771.333V5.66666H728.667V32.3333H771.333V37.6667H723.333V0.333332ZM830 0.333332H835.333V32.3333H830V16.3333H824.667V32.3333H819.333V0.333332H824.667V11H830V0.333332ZM782 32.3333V0.333332H814V32.3333H782ZM830 53.6667V48.3333H792.667V53.6667H830ZM830 43V37.6667H835.333V59H787.333V37.6667H792.667V43H830ZM787.333 27H808.667V5.66666H787.333V27Z" fill="white"/>
<path d="M17.9181 219.96H40.9556V248.195H17.9181V219.96Z" fill="black"/>
<path d="M17.9181 856.805H40.9556V885.04H17.9181V856.805Z" fill="black"/>
<path d="M1459.04 219.96H1482.08V248.195H1459.04V219.96Z" fill="black"/>
<path d="M1459.04 856.805H1482.08V885.04H1459.04V856.805Z" fill="black"/>
<path d="M0 245.058H20.4778V859.942H0V245.058Z" fill="black"/>
<path d="M1479.52 245.058H1500V859.942H1479.52V245.058Z" fill="black"/>
<path d="M1461.6 881.903V907L38.3959 907V881.903L1461.6 881.903Z" fill="black"/>
<path d="M1461.6 198V223.097L38.3959 223.097V198L1461.6 198Z" fill="black"/>
<path d="M19.9998 229.816H55.8594V870.303H19.9998V229.816Z" fill="#8CA5A9"/>
<path d="M1480 870.303H1444.14V229.816L1480 229.816V870.303Z" fill="#8CA5A9"/>
<path d="M1459.51 203.404V249.625L40.491 249.625L40.491 203.404L1459.51 203.404Z" fill="#8CA5A9"/>
<path d="M40.491 896.715L40.491 850.494L1459.51 850.494V896.715L40.491 896.715Z" fill="#8CA5A9"/>
<rect x="56" y="212.86" width="1388" height="673.38" fill="#F8F8F8"/>
<rect x="76.9998" y="218.265" width="1346" height="657.691" fill="#D2DDDF"/>
<path d="M514.469 421V405H519.802V415.667H551.802V421H514.469ZM514.469 378.333V373H519.802V378.333H514.469ZM525.135 399.667V394.333H530.469V399.667H525.135ZM525.135 405H519.802V399.667H525.135V405ZM525.135 367.667V373H519.802V367.667H525.135ZM525.135 362.333H541.135V367.667H525.135V362.333ZM546.469 383.667V389H541.135V383.667H546.469ZM546.469 367.667V373H541.135V367.667H546.469ZM546.469 373H551.802V383.667H546.469V373ZM530.469 394.333V389H541.135V394.333H530.469ZM557.156 410.333V373H562.49V410.333H557.156ZM562.49 410.333H567.823V415.667H562.49V410.333ZM562.49 373V367.667H567.823V373H562.49ZM567.823 415.667H583.823V421H567.823V415.667ZM567.823 367.667V362.333H583.823V367.667H567.823ZM583.823 415.667V410.333H589.156V415.667H583.823ZM583.823 367.667H589.156V373H583.823V367.667ZM589.156 410.333V373H594.49V410.333H589.156ZM599.844 421V405H605.177V415.667H637.177V421H599.844ZM599.844 378.333V373H605.177V378.333H599.844ZM610.51 399.667V394.333H615.844V399.667H610.51ZM610.51 405H605.177V399.667H610.51V405ZM610.51 367.667V373H605.177V367.667H610.51ZM610.51 362.333H626.51V367.667H610.51V362.333ZM631.844 383.667V389H626.51V383.667H631.844ZM631.844 367.667V373H626.51V367.667H631.844ZM631.844 373H637.177V383.667H631.844V373ZM615.844 394.333V389H626.51V394.333H615.844ZM642.531 410.333V405H647.865V410.333H642.531ZM642.531 394.333V362.333H679.865V367.667H647.865V389H653.198V394.333H642.531ZM653.198 410.333V415.667H647.865V410.333H653.198ZM653.198 415.667H669.198V421H653.198V415.667ZM653.198 389V383.667H669.198V389H653.198ZM674.531 410.333V415.667H669.198V410.333H674.531ZM674.531 394.333H669.198V389H674.531V394.333ZM679.865 410.333H674.531V394.333H679.865V410.333ZM733.219 362.333H738.552V405H733.219V383.667H717.219V378.333H733.219V373H717.219V367.667H733.219V362.333ZM690.552 362.333V389H722.552V394.333H685.219V362.333H690.552ZM690.552 421V399.667H695.885V415.667H738.552V421H690.552ZM823.906 362.333H829.24V373H834.573V378.333H829.24V394.333H823.906V362.333ZM775.906 394.333V389H781.24V394.333H775.906ZM823.906 415.667V421H786.573V415.667H823.906ZM823.906 399.667V405H786.573V399.667H823.906ZM823.906 405H829.24V415.667H823.906V405ZM786.573 415.667H781.24V405H786.573V415.667ZM786.573 383.667V389H781.24V383.667H786.573ZM786.573 378.333H791.906V383.667H786.573V378.333ZM797.24 383.667V378.333H802.573V383.667H797.24ZM797.24 378.333H791.906V362.333H797.24V378.333ZM807.906 394.333V389H813.24V394.333H807.906ZM807.906 383.667V389H802.573V383.667H807.906ZM887.906 362.333H893.24V378.333H898.573V383.667H893.24V405H887.906V362.333ZM839.906 394.333V362.333H845.24V373H866.573V362.333H871.906V394.333H839.906ZM850.573 415.667H893.24V421H845.24V399.667H850.573V415.667ZM845.24 389H866.573V378.333H845.24V389ZM951.906 362.333H957.24V421H951.906V362.333ZM903.906 415.667V410.333H914.573V415.667H903.906ZM903.906 367.667V362.333H935.906V389H930.573V367.667H903.906ZM914.573 410.333V405H919.906V410.333H914.573ZM919.906 405V399.667H925.24V405H919.906ZM925.24 399.667V389H930.573V399.667H925.24ZM315.227 529V525H335.227V529H315.227ZM515.289 545V541H559.289V545H515.289ZM519.289 505H555.289V509H547.289V529H555.289V533H519.289V529H527.289V509H519.289V505ZM531.289 529H543.289V509H531.289V529ZM563.289 545V541H583.289V533H567.289V517H599.289V509H567.289V505H603.289V521H571.289V529H603.289V533H587.289V541H607.289V545H563.289ZM647.289 505H651.289V529H647.289V505ZM611.289 529V525H615.289V529H611.289ZM611.289 509V505H631.289V509H623.289V517H619.289V509H611.289ZM647.289 549V537H615.289V533H651.289V549H647.289ZM619.289 525H615.289V517H619.289V525ZM627.289 529V525H631.289V529H627.289ZM627.289 525H623.289V517H627.289V525ZM643.289 529H639.289V517H631.289V513H639.289V505H643.289V529ZM659.289 545V541H703.289V545H659.289ZM663.289 505H699.289V509H667.289V517H699.289V521H667.289V529H699.289V533H663.289V505ZM763.305 505H767.305V537H763.305V521H759.305V537H755.305V505H759.305V517H763.305V505ZM727.305 529V513H747.305V509H727.305V505H751.305V517H731.305V525H751.305V529H727.305ZM735.305 545H767.305V549H731.305V533H735.305V545ZM811.305 505H815.305V529H811.305V505ZM775.305 529V505H803.305V509H779.305V525H803.305V529H775.305ZM811.305 545V549H783.305V545H811.305ZM779.305 545V537H783.305V545H779.305ZM811.305 533V537H783.305V533H811.305ZM811.305 537H815.305V545H811.305V537ZM823.305 545V541H827.305V509H823.305V505H847.305V509H843.305V541H847.305V545H823.305ZM859.305 505H863.305V549H859.305V505ZM831.305 541H839.305V509H831.305V541ZM847.305 525V521H851.305V505H855.305V549H851.305V525H847.305ZM907.305 505H911.305V549H907.305V505ZM871.305 537V513H875.305V537H871.305ZM879.305 541H875.305V537H879.305V541ZM879.305 545V541H891.305V545H879.305ZM879.305 509V513H875.305V509H879.305ZM879.305 505H891.305V509H879.305V505ZM895.305 541H891.305V537H895.305V541ZM895.305 537V513H899.305V537H895.305ZM895.305 509V513H891.305V509H895.305ZM955.305 505H959.305V549H955.305V505ZM919.305 545V541H923.305V545H919.305ZM919.305 509V505H947.305V509H935.305V521H931.305V509H919.305ZM927.305 541H923.305V533H927.305V541ZM927.305 533V521H931.305V533H927.305ZM935.305 533V521H939.305V533H935.305ZM943.305 541H939.305V533H943.305V541ZM943.305 545V541H947.305V545H943.305ZM1023.32 505H1027.32V537H1023.32V521H1015.32V517H1023.32V505ZM987.32 529V513H1007.32V509H987.32V505H1011.32V517H991.32V525H1015.32V529H987.32ZM995.32 545H1027.32V549H991.32V533H995.32V545ZM1071.32 505H1075.32V529H1071.32V505ZM1035.32 529V525H1043.32V529H1035.32ZM1035.32 517V513H1063.32V517H1051.32V521H1047.32V517H1035.32ZM1071.32 545V549H1043.32V545H1071.32ZM1071.32 533V537H1043.32V533H1071.32ZM1071.32 537H1075.32V545H1071.32V537ZM1043.32 545H1039.32V537H1043.32V545ZM1043.32 525V521H1047.32V525H1043.32ZM1043.32 509V505H1055.32V509H1043.32ZM1051.32 521H1055.32V525H1051.32V521ZM1055.32 529V525H1063.32V529H1055.32ZM1103.34 541V533H1107.34V541H1103.34ZM1111.34 541V545H1107.34V541H1111.34ZM1111.34 545H1119.34V549H1111.34V545ZM1111.34 529V533H1107.34V529H1111.34ZM1111.34 525H1107.34V509H1111.34V525ZM1111.34 509V505H1119.34V509H1111.34ZM1119.34 545V541H1123.34V545H1119.34ZM1119.34 529V533H1115.34V529H1119.34ZM1119.34 533H1123.34V537H1119.34V533ZM1119.34 521V525H1115.34V521H1119.34ZM1119.34 509H1123.34V521H1119.34V509ZM1127.34 541H1123.34V537H1127.34V541ZM1127.34 545V541H1131.34V545H1127.34ZM1127.34 537V533H1131.34V537H1127.34ZM1115.34 529H1111.34V525H1115.34V529ZM1155.37 545V541H1175.37V529H1179.37V541H1199.37V545H1155.37ZM1191.37 529H1187.37V525H1191.37V529ZM1191.37 533V529H1195.37V533H1191.37ZM1163.37 529V533H1159.37V529H1163.37ZM1163.37 525H1167.37V529H1163.37V525ZM1171.37 521V525H1167.37V521H1171.37ZM1171.37 517H1175.37V521H1171.37V517ZM1179.37 521V517H1183.37V521H1179.37ZM1179.37 517H1175.37V505H1179.37V517ZM1187.37 521V525H1183.37V521H1187.37ZM1239.37 505H1243.37V549H1239.37V529H1235.37V549H1231.37V505H1235.37V525H1239.37V505ZM1203.37 545V541H1211.37V545H1203.37ZM1203.37 509V505H1227.37V525H1223.37V509H1203.37ZM1211.37 541V537H1215.37V541H1211.37ZM1219.37 533V537H1215.37V533H1219.37ZM1219.37 525H1223.37V533H1219.37V525ZM485.5 593V589H505.5V593H485.5ZM917.547 569H921.547V581H925.547V585H921.547V601H917.547V569ZM881.547 593V589H889.547V573H881.547V569H913.547V573H905.547V589H913.547V593H881.547ZM889.547 609H921.547V613H885.547V597H889.547V609ZM893.547 589H901.547V573H893.547V589ZM929.547 609V569H953.547V609H929.547ZM961.547 613H957.547V569H961.547V589H965.547V569H969.547V613H965.547V593H961.547V613ZM933.547 605H949.547V573H933.547V605ZM1033.56 569H1037.56V613H1033.56V569ZM997.562 609V605H1001.56V609H997.562ZM1005.56 605H1001.56V597H1005.56V605ZM1005.56 597V589H1009.56V597H1005.56ZM1013.56 597V589H1017.56V597H1013.56ZM1013.56 589H1009.56V569H1013.56V589ZM1021.56 605H1017.56V597H1021.56V605ZM1021.56 609V605H1025.56V609H1021.56ZM1081.56 569H1085.56V577H1089.56V581H1085.56V593H1081.56V569ZM1045.56 593V589H1049.56V593H1045.56ZM1045.56 573V569H1073.56V573H1061.56V581H1057.56V573H1045.56ZM1081.56 613V601H1049.56V597H1085.56V613H1081.56ZM1053.56 585V589H1049.56V585H1053.56ZM1053.56 581H1057.56V585H1053.56V581ZM1061.56 585V581H1065.56V585H1061.56ZM1069.56 593V589H1073.56V593H1069.56ZM1069.56 585V589H1065.56V585H1069.56ZM425.219 657V653H445.219V657H425.219ZM605.266 681V677H609.266V681H605.266ZM609.266 677V673H613.266V677H609.266ZM645.266 633H681.266V653H685.266V657H641.266V653H661.266V645H645.266V641H677.266V637H645.266V633ZM645.266 677V661H649.266V673H681.266V677H645.266ZM677.266 653V645H665.266V653H677.266ZM689.266 653V649H709.266V641H713.266V649H733.266V653H689.266ZM725.266 665V661H693.266V657H729.266V669H697.266V673H729.266V677H693.266V665H725.266ZM713.266 637H721.266V641H713.266V637ZM713.266 633V637H709.266V633H713.266ZM721.266 641H729.266V645H721.266V641ZM693.266 645V641H701.266V645H693.266ZM701.266 641V637H709.266V641H701.266ZM793.281 633H797.281V665H793.281V645H785.281V641H793.281V633ZM757.281 657V653H761.281V657H757.281ZM757.281 637V633H785.281V637H773.281V645H769.281V637H757.281ZM765.281 673H797.281V677H761.281V661H765.281V673ZM765.281 649V653H761.281V649H765.281ZM765.281 645H769.281V649H765.281V645ZM773.281 649V645H777.281V649H773.281ZM781.281 657V653H785.281V657H781.281ZM781.281 649V653H777.281V649H781.281ZM841.281 633H845.281V645H849.281V649H845.281V665H841.281V633ZM805.281 657V653H817.281V649H813.281V645H829.281V649H821.281V653H837.281V657H805.281ZM805.281 641V637H817.281V633H821.281V637H837.281V641H833.281V645H829.281V641H813.281V645H809.281V641H805.281ZM813.281 673H845.281V677H809.281V661H813.281V673ZM1021.33 633H1025.33V665H1021.33V633ZM985.328 657V633H1009.33V657H985.328ZM989.328 677V661H993.328V673H1025.33V677H989.328ZM989.328 653H1005.33V637H989.328V653ZM1069.33 633H1073.33V657H1069.33V633ZM1033.33 657V633H1057.33V637H1037.33V641H1057.33V645H1037.33V653H1057.33V657H1033.33ZM1069.33 673V677H1041.33V673H1069.33ZM1069.33 661V665H1041.33V661H1069.33ZM1069.33 665H1073.33V673H1069.33V665ZM1041.33 673H1037.33V665H1041.33V673ZM443.477 721V717H463.477V721H443.477ZM623.523 745V741H627.523V745H623.523ZM627.523 741V737H631.523V741H627.523ZM659.523 741V697H663.523V701H667.523V709H663.523V741H659.523ZM667.523 717V709H671.523V717H667.523ZM671.523 721V717H675.523V721H671.523ZM675.523 721H679.523V729H675.523V721ZM679.523 737V729H683.523V697H687.523V741H683.523V737H679.523ZM691.539 741V697H715.539V701H695.539V717H715.539V721H695.539V741H691.539ZM735.523 741H731.523V701H719.523V697H747.523V701H735.523V741ZM983.57 729V709H987.57V729H983.57ZM987.57 737V729H991.57V737H987.57ZM987.57 701H991.57V709H987.57V701ZM991.57 737H995.57V741H991.57V737ZM995.57 697V701H991.57V697H995.57ZM999.555 733V713H1003.55V717H1007.55V721H1003.55V733H999.555ZM1007.55 733V737H1003.55V733H1007.55ZM1007.55 737H1019.55V741H1007.55V737ZM1007.55 713H1003.55V705H1007.55V713ZM1007.55 717V713H1019.55V717H1007.55ZM1007.55 705V701H1011.55V705H1007.55ZM1023.55 733V737H1019.55V733H1023.55ZM1023.55 721H1019.55V717H1023.55V721ZM1011.55 697H1019.55V701H1011.55V697ZM1027.55 733H1023.55V721H1027.55V733ZM1031.57 733H1035.57V741H1031.57V733ZM1035.57 733V725H1039.57V733H1035.57ZM1039.57 725V713H1043.57V725H1039.57ZM1043.57 713V705H1047.57V713H1043.57ZM1051.57 697V705H1047.57V697H1051.57ZM1055.57 733V729H1059.57V733H1055.57ZM1055.57 709V705H1059.57V709H1055.57ZM1063.57 733V737H1059.57V733H1063.57ZM1063.57 737H1075.57V741H1063.57V737ZM1063.57 721V717H1075.57V721H1063.57ZM1063.57 701V705H1059.57V701H1063.57ZM1063.57 697H1075.57V701H1063.57V697ZM1079.57 733V737H1075.57V733H1079.57ZM1079.57 721V725H1075.57V721H1079.57ZM1079.57 725H1083.57V733H1079.57V725ZM1079.57 713V717H1075.57V713H1079.57ZM1079.57 701V705H1075.57V701H1079.57ZM1079.57 705H1083.57V713H1079.57V705ZM1087.59 733V705H1091.59V733H1087.59ZM1091.59 733H1095.59V737H1091.59V733ZM1091.59 705V701H1095.59V705H1091.59ZM1095.59 737H1107.59V741H1095.59V737ZM1095.59 701V697H1107.59V701H1095.59ZM1107.59 737V733H1111.59V737H1107.59ZM1107.59 701H1111.59V705H1107.59V701ZM1111.59 733V705H1115.59V733H1111.59ZM1119.6 741V737H1123.6V741H1119.6ZM1123.6 697V701H1119.6V697H1123.6ZM1123.6 737V729H1127.6V737H1123.6ZM1123.6 701H1127.6V709H1123.6V701ZM1127.6 729V709H1131.6V729H1127.6Z" fill="black"/>
<path d="M359.242 541V537H363.242V541H359.242ZM359.242 521V513H363.242V521H359.242ZM367.242 541V545H363.242V541H367.242ZM367.242 545H379.242V549H367.242V545ZM367.242 529V525H379.242V529H367.242ZM367.242 521V525H363.242V521H367.242ZM367.242 509V513H363.242V509H367.242ZM367.242 505H379.242V509H367.242V505ZM383.242 541V545H379.242V541H383.242ZM383.242 529V533H379.242V529H383.242ZM383.242 533H387.242V541H383.242V533ZM383.242 509V513H379.242V509H383.242ZM383.242 513H387.242V517H383.242V513ZM391.258 549V505H411.258V509H395.258V525H411.258V529H395.258V545H411.258V549H391.258ZM415.258 541V545H411.258V541H415.258ZM415.258 529V533H411.258V529H415.258ZM415.258 533H419.258V541H415.258V533ZM415.258 521V525H411.258V521H415.258ZM415.258 509V513H411.258V509H415.258ZM415.258 513H419.258V521H415.258V513ZM459.273 505V549H455.273V517H451.273V509H455.273V505H459.273ZM423.273 549V505H427.273V509H431.273V517H427.273V549H423.273ZM431.273 529V517H435.273V529H431.273ZM439.273 541H443.273V549H439.273V541ZM439.273 529V541H435.273V529H439.273ZM447.273 541H443.273V529H447.273V541ZM447.273 529V517H451.273V529H447.273ZM463.258 549V505H483.258V509H467.258V525H483.258V529H467.258V545H483.258V549H463.258ZM487.258 541V545H483.258V541H487.258ZM487.258 529V533H483.258V529H487.258ZM487.258 533H491.258V541H487.258V533ZM487.258 521V525H483.258V521H487.258ZM487.258 509V513H483.258V509H487.258ZM487.258 513H491.258V521H487.258V513ZM469.234 669V665H473.234V669H469.234ZM469.234 649V641H473.234V649H469.234ZM477.234 669V673H473.234V669H477.234ZM477.234 673H489.234V677H477.234V673ZM477.234 657V653H489.234V657H477.234ZM477.234 649V653H473.234V649H477.234ZM477.234 637V641H473.234V637H477.234ZM477.234 633H489.234V637H477.234V633ZM493.234 669V673H489.234V669H493.234ZM493.234 657V661H489.234V657H493.234ZM493.234 661H497.234V669H493.234V661ZM493.234 637V641H489.234V637H493.234ZM493.234 641H497.234V645H493.234V641ZM501.25 677V633H521.25V637H505.25V653H521.25V657H505.25V673H521.25V677H501.25ZM525.25 669V673H521.25V669H525.25ZM525.25 657V661H521.25V657H525.25ZM525.25 661H529.25V669H525.25V661ZM525.25 649V653H521.25V649H525.25ZM525.25 637V641H521.25V637H525.25ZM525.25 641H529.25V649H525.25V641ZM569.266 633V677H565.266V645H561.266V637H565.266V633H569.266ZM533.266 677V633H537.266V637H541.266V645H537.266V677H533.266ZM541.266 657V645H545.266V657H541.266ZM549.266 669H553.266V677H549.266V669ZM549.266 657V669H545.266V657H549.266ZM557.266 669H553.266V657H557.266V669ZM557.266 657V645H561.266V657H557.266ZM573.25 677V633H593.25V637H577.25V653H593.25V657H577.25V673H593.25V677H573.25ZM597.25 669V673H593.25V669H597.25ZM597.25 657V661H593.25V657H597.25ZM597.25 661H601.25V669H597.25V661ZM597.25 649V653H593.25V649H597.25ZM597.25 637V641H593.25V637H597.25ZM597.25 641H601.25V649H597.25V641ZM873.297 677V633H877.297V637H881.297V645H877.297V677H873.297ZM881.297 653V645H885.297V653H881.297ZM885.297 657V653H889.297V657H885.297ZM889.297 657H893.297V665H889.297V657ZM893.297 673V665H897.297V633H901.297V677H897.297V673H893.297ZM905.312 677V633H929.312V637H909.313V653H929.312V657H909.313V677H905.312ZM949.297 677H945.297V637H933.297V633H961.297V637H949.297V677ZM487.492 733V729H491.492V733H487.492ZM487.492 713V705H491.492V713H487.492ZM495.492 733V737H491.492V733H495.492ZM495.492 737H507.492V741H495.492V737ZM495.492 721V717H507.492V721H495.492ZM495.492 713V717H491.492V713H495.492ZM495.492 701V705H491.492V701H495.492ZM495.492 697H507.492V701H495.492V697ZM511.492 733V737H507.492V733H511.492ZM511.492 721V725H507.492V721H511.492ZM511.492 725H515.492V733H511.492V725ZM511.492 701V705H507.492V701H511.492ZM511.492 705H515.492V709H511.492V705ZM519.508 741V697H539.508V701H523.508V717H539.508V721H523.508V737H539.508V741H519.508ZM543.508 733V737H539.508V733H543.508ZM543.508 721V725H539.508V721H543.508ZM543.508 725H547.508V733H543.508V725ZM543.508 713V717H539.508V713H543.508ZM543.508 701V705H539.508V701H543.508ZM543.508 705H547.508V713H543.508V705ZM587.523 697V741H583.523V709H579.523V701H583.523V697H587.523ZM551.523 741V697H555.523V701H559.523V709H555.523V741H551.523ZM559.523 721V709H563.523V721H559.523ZM567.523 733H571.523V741H567.523V733ZM567.523 721V733H563.523V721H567.523ZM575.523 733H571.523V721H575.523V733ZM575.523 721V709H579.523V721H575.523ZM591.508 741V697H611.508V701H595.508V717H611.508V721H595.508V737H611.508V741H591.508ZM615.508 733V737H611.508V733H615.508ZM615.508 721V725H611.508V721H615.508ZM615.508 725H619.508V733H615.508V725ZM615.508 713V717H611.508V713H615.508ZM615.508 701V705H611.508V701H615.508ZM615.508 705H619.508V713H615.508V705Z" fill="#43D084"/>
<path d="M529.516 613V569H553.516V573H533.516V589H553.516V593H533.516V609H553.516V613H529.516ZM561.5 569V581H557.5V569H561.5ZM561.5 593V581H565.5V593H561.5ZM565.5 605V593H569.5V605H565.5ZM569.5 605H573.5V613H569.5V605ZM573.5 605V593H577.5V605H573.5ZM577.5 593V581H581.5V593H577.5ZM585.5 569V581H581.5V569H585.5ZM625.516 569V613H621.516V581H617.516V573H621.516V569H625.516ZM589.516 613V569H593.516V573H597.516V581H593.516V613H589.516ZM597.516 593V581H601.516V593H597.516ZM605.516 605H609.516V613H605.516V605ZM605.516 593V605H601.516V593H605.516ZM613.516 605H609.516V593H613.516V605ZM613.516 593V581H617.516V593H613.516ZM649.516 593V589H669.516V585H673.516V589H693.516V593H649.516ZM685.516 609V613H657.516V609H685.516ZM685.516 597V601H657.516V597H685.516ZM685.516 601H689.516V609H685.516V601ZM657.516 609H653.516V601H657.516V609ZM673.516 573V577H669.516V573H653.516V569H689.516V573H673.516ZM673.516 577H681.516V581H673.516V577ZM681.516 585V581H689.516V585H681.516ZM653.516 585V581H661.516V585H653.516ZM661.516 581V577H669.516V581H661.516ZM733.516 569H737.516V613H733.516V569ZM697.516 601V577H701.516V601H697.516ZM705.516 605H701.516V601H705.516V605ZM705.516 609V605H717.516V609H705.516ZM705.516 573V577H701.516V573H705.516ZM705.516 569H717.516V573H705.516V569ZM721.516 605H717.516V601H721.516V605ZM721.516 601V577H725.516V601H721.516ZM721.516 573V577H717.516V573H721.516ZM801.531 569H805.531V613H801.531V569ZM765.531 609V605H769.531V609H765.531ZM765.531 573V569H793.531V573H781.531V585H777.531V573H765.531ZM773.531 605H769.531V597H773.531V605ZM773.531 597V585H777.531V597H773.531ZM781.531 597V585H785.531V597H781.531ZM789.531 605H785.531V597H789.531V605ZM789.531 609V605H793.531V609H789.531ZM849.531 569H853.531V577H857.531V581H853.531V593H849.531V569ZM813.531 593V589H825.531V593H813.531ZM813.531 573V569H837.531V581H833.531V573H813.531ZM849.531 609V605H821.531V609H849.531ZM849.531 601V597H853.531V613H817.531V597H821.531V601H849.531ZM829.531 585V589H825.531V585H829.531ZM829.531 581H833.531V585H829.531V581Z" fill="#66B459"/>
<path d="M807.555 697H811.555V741H807.555V697ZM771.555 729V705H775.555V729H771.555ZM779.555 733H787.555V737H779.555V733ZM779.555 729V733H775.555V729H779.555ZM779.555 701V705H775.555V701H779.555ZM779.555 697H787.555V701H779.555V697ZM787.555 733V729H791.555V733H787.555ZM787.555 701H791.555V705H787.555V701ZM795.555 729H791.555V705H795.555V713H799.555V697H803.555V741H799.555V717H795.555V729ZM855.555 697H859.555V741H855.555V717H847.555V729H843.555V705H847.555V713H855.555V697ZM819.555 729V705H823.555V729H819.555ZM827.555 733H823.555V729H827.555V733ZM827.555 737V733H839.555V737H827.555ZM827.555 701V705H823.555V701H827.555ZM827.555 697H839.555V701H827.555V697ZM843.555 733H839.555V729H843.555V733ZM843.555 701V705H839.555V701H843.555ZM867.555 737V733H911.555V737H867.555ZM871.555 697H907.555V701H875.555V721H907.555V725H871.555V697ZM951.555 697H955.555V705H959.555V709H955.555V721H951.555V697ZM915.555 721V705H935.555V701H915.555V697H939.555V709H919.555V717H943.555V721H915.555ZM951.555 737V733H923.555V737H951.555ZM951.555 729V725H955.555V741H919.555V725H923.555V729H951.555Z" fill="#E940E6"/>
<path d="M17.9181 1128.96H40.9556V1157.19H17.9181V1128.96Z" fill="black"/>
<path d="M17.9181 1765.81H40.9556V1794.04H17.9181V1765.81Z" fill="black"/>
<path d="M1459.04 1128.96H1482.08V1157.19H1459.04V1128.96Z" fill="black"/>
<path d="M1459.04 1765.81H1482.08V1794.04H1459.04V1765.81Z" fill="black"/>
<path d="M0 1154.06H20.4778V1768.94H0V1154.06Z" fill="black"/>
<path d="M1479.52 1154.06H1500V1768.94H1479.52V1154.06Z" fill="black"/>
<path d="M1461.6 1790.9V1816L38.3959 1816V1790.9L1461.6 1790.9Z" fill="black"/>
<path d="M1461.6 1107V1132.1L38.3959 1132.1V1107L1461.6 1107Z" fill="black"/>
<path d="M19.9998 1138.82H55.8594V1779.3H19.9998V1138.82Z" fill="#8CA5A9"/>
<path d="M1480 1779.3H1444.14V1138.82L1480 1138.82V1779.3Z" fill="#8CA5A9"/>
<path d="M1459.51 1112.4V1158.63L40.491 1158.63L40.491 1112.4L1459.51 1112.4Z" fill="#8CA5A9"/>
<path d="M40.491 1805.71L40.491 1759.49L1459.51 1759.49V1805.71L40.491 1805.71Z" fill="#8CA5A9"/>
<rect x="56" y="1121.86" width="1388" height="673.38" fill="#F8F8F8"/>
<rect x="76.9998" y="1127.26" width="1346" height="657.691" fill="#D2DDDF"/>
<path d="M514.969 1362V1346H520.302V1356.67H552.302V1362H514.969ZM514.969 1319.33V1314H520.302V1319.33H514.969ZM525.635 1340.67V1335.33H530.969V1340.67H525.635ZM525.635 1346H520.302V1340.67H525.635V1346ZM525.635 1308.67V1314H520.302V1308.67H525.635ZM525.635 1303.33H541.635V1308.67H525.635V1303.33ZM546.969 1324.67V1330H541.635V1324.67H546.969ZM546.969 1308.67V1314H541.635V1308.67H546.969ZM546.969 1314H552.302V1324.67H546.969V1314ZM530.969 1335.33V1330H541.635V1335.33H530.969ZM557.656 1351.33V1314H562.99V1351.33H557.656ZM562.99 1351.33H568.323V1356.67H562.99V1351.33ZM562.99 1314V1308.67H568.323V1314H562.99ZM568.323 1356.67H584.323V1362H568.323V1356.67ZM568.323 1308.67V1303.33H584.323V1308.67H568.323ZM584.323 1356.67V1351.33H589.656V1356.67H584.323ZM584.323 1308.67H589.656V1314H584.323V1308.67ZM589.656 1351.33V1314H594.99V1351.33H589.656ZM600.344 1362V1346H605.677V1356.67H637.677V1362H600.344ZM600.344 1319.33V1314H605.677V1319.33H600.344ZM611.01 1340.67V1335.33H616.344V1340.67H611.01ZM611.01 1346H605.677V1340.67H611.01V1346ZM611.01 1308.67V1314H605.677V1308.67H611.01ZM611.01 1303.33H627.01V1308.67H611.01V1303.33ZM632.344 1324.67V1330H627.01V1324.67H632.344ZM632.344 1308.67V1314H627.01V1308.67H632.344ZM632.344 1314H637.677V1324.67H632.344V1314ZM616.344 1335.33V1330H627.01V1335.33H616.344ZM643.031 1351.33V1346H648.365V1351.33H643.031ZM643.031 1335.33V1303.33H680.365V1308.67H648.365V1330H653.698V1335.33H643.031ZM653.698 1351.33V1356.67H648.365V1351.33H653.698ZM653.698 1356.67H669.698V1362H653.698V1356.67ZM653.698 1330V1324.67H669.698V1330H653.698ZM675.031 1351.33V1356.67H669.698V1351.33H675.031ZM675.031 1335.33H669.698V1330H675.031V1335.33ZM680.365 1351.33H675.031V1335.33H680.365V1351.33ZM733.719 1303.33H739.052V1346H733.719V1324.67H717.719V1319.33H733.719V1314H717.719V1308.67H733.719V1303.33ZM691.052 1303.33V1330H723.052V1335.33H685.719V1303.33H691.052ZM691.052 1362V1340.67H696.385V1356.67H739.052V1362H691.052ZM824.406 1303.33H829.74V1330H835.073V1335.33H829.74V1362H824.406V1303.33ZM776.406 1319.33V1314H819.073V1319.33H776.406ZM787.073 1351.33H781.74V1330H787.073V1351.33ZM787.073 1356.67V1351.33H808.406V1356.67H787.073ZM787.073 1330V1324.67H808.406V1330H787.073ZM787.073 1308.67V1303.33H808.406V1308.67H787.073ZM808.406 1351.33V1330H813.74V1351.33H808.406ZM888.406 1303.33H893.74V1319.33H899.073V1324.67H893.74V1346H888.406V1303.33ZM840.406 1335.33V1303.33H845.74V1314H867.073V1303.33H872.406V1335.33H840.406ZM851.073 1356.67H893.74V1362H845.74V1340.67H851.073V1356.67ZM845.74 1330H867.073V1319.33H845.74V1330ZM952.406 1303.33H957.74V1362H952.406V1303.33ZM904.406 1356.67V1351.33H915.073V1356.67H904.406ZM904.406 1308.67V1303.33H936.406V1330H931.073V1308.67H904.406ZM915.073 1351.33V1346H920.406V1351.33H915.073ZM920.406 1346V1340.67H925.74V1346H920.406ZM925.74 1340.67V1330H931.073V1340.67H925.74ZM429.961 1470V1466H449.961V1470H429.961ZM629.977 1470V1466H633.977V1470H629.977ZM633.977 1470H637.977V1474H633.977V1470ZM633.977 1466V1462H637.977V1466H633.977ZM637.977 1474H641.977V1478H637.977V1474ZM637.977 1462V1458H641.977V1462H637.977ZM641.977 1482V1478H645.977V1482H641.977ZM641.977 1458V1454H645.977V1458H641.977ZM649.992 1478V1474H669.992V1478H649.992ZM649.992 1466V1462H669.992V1466H649.992ZM673.992 1482V1478H677.992V1482H673.992ZM673.992 1458V1454H677.992V1458H673.992ZM677.992 1478V1474H681.992V1478H677.992ZM677.992 1462V1458H681.992V1462H677.992ZM681.992 1474V1470H685.992V1474H681.992ZM681.992 1462H685.992V1466H681.992V1462ZM685.992 1470V1466H689.992V1470H685.992ZM870.07 1486V1482H914.07V1486H870.07ZM906.07 1470H902.07V1466H906.07V1470ZM906.07 1474V1470H910.07V1474H906.07ZM878.07 1470V1474H874.07V1470H878.07ZM878.07 1466H882.07V1470H878.07V1466ZM886.07 1462V1466H882.07V1462H886.07ZM886.07 1458H890.07V1462H886.07V1458ZM894.07 1462V1458H898.07V1462H894.07ZM894.07 1458H890.07V1446H894.07V1458ZM902.07 1462V1466H898.07V1462H902.07ZM954.07 1446H958.07V1454H962.07V1458H958.07V1470H954.07V1446ZM918.07 1470V1466H934.07V1462H926.07V1458H942.07V1462H938.07V1466H950.07V1470H918.07ZM954.07 1486V1482H926.07V1486H954.07ZM954.07 1478V1474H958.07V1490H922.07V1474H926.07V1478H954.07ZM926.07 1450V1458H922.07V1450H926.07ZM926.07 1446H942.07V1450H926.07V1446ZM942.07 1450H946.07V1458H942.07V1450ZM986.086 1466V1462H1030.09V1466H1010.09V1470H1026.09V1482H994.086V1486H1026.09V1490H990.086V1478H1022.09V1474H990.086V1470H1006.09V1466H986.086ZM1002.09 1450V1454H1014.09V1450H1002.09ZM990.086 1446H1026.09V1450H1018.09V1454H1026.09V1458H990.086V1454H998.086V1450H990.086V1446ZM1090.1 1446H1094.1V1470H1090.1V1458H1086.1V1470H1078.1V1466H1082.1V1446H1086.1V1454H1090.1V1446ZM1054.1 1470V1466H1058.1V1470H1054.1ZM1090.1 1486V1490H1062.1V1486H1090.1ZM1090.1 1474V1478H1062.1V1474H1090.1ZM1090.1 1478H1094.1V1486H1090.1V1478ZM1062.1 1486H1058.1V1478H1062.1V1486ZM1062.1 1462V1466H1058.1V1462H1062.1ZM1062.1 1458H1066.1V1462H1062.1V1458ZM1070.1 1462V1458H1074.1V1462H1070.1ZM1070.1 1458H1066.1V1446H1070.1V1458ZM1078.1 1462V1466H1074.1V1462H1078.1ZM1138.1 1446H1142.1V1470H1138.1V1458H1130.1V1454H1138.1V1446ZM1102.1 1470V1466H1106.1V1470H1102.1ZM1138.1 1486V1490H1110.1V1486H1138.1ZM1138.1 1474V1478H1110.1V1474H1138.1ZM1138.1 1478H1142.1V1486H1138.1V1478ZM1110.1 1486H1106.1V1478H1110.1V1486ZM1110.1 1462V1466H1106.1V1462H1110.1ZM1110.1 1458H1114.1V1462H1110.1V1458ZM1118.1 1462V1458H1122.1V1462H1118.1ZM1118.1 1458H1114.1V1446H1118.1V1458ZM1126.1 1470V1466H1130.1V1470H1126.1ZM1126.1 1462V1466H1122.1V1462H1126.1ZM387.914 1534V1530H407.914V1534H387.914ZM587.977 1534V1530H591.977V1534H587.977ZM591.977 1534H595.977V1538H591.977V1534ZM591.977 1530V1526H595.977V1530H591.977ZM595.977 1538H599.977V1542H595.977V1538ZM595.977 1526V1522H599.977V1526H595.977ZM599.977 1546V1542H603.977V1546H599.977ZM599.977 1522V1518H603.977V1522H599.977ZM607.992 1542V1538H627.992V1542H607.992ZM607.992 1530V1526H627.992V1530H607.992ZM631.992 1546V1542H635.992V1546H631.992ZM631.992 1522V1518H635.992V1522H631.992ZM635.992 1542V1538H639.992V1542H635.992ZM635.992 1526V1522H639.992V1526H635.992ZM639.992 1538V1534H643.992V1538H639.992ZM639.992 1526H643.992V1530H639.992V1526ZM643.992 1534V1530H647.992V1534H643.992ZM672.023 1554V1510H692.023V1514H676.023V1530H692.023V1534H676.023V1550H692.023V1554H672.023ZM696.023 1546V1550H692.023V1546H696.023ZM696.023 1534V1538H692.023V1534H696.023ZM696.023 1538H700.023V1546H696.023V1538ZM696.023 1526V1530H692.023V1526H696.023ZM696.023 1514V1518H692.023V1514H696.023ZM696.023 1518H700.023V1526H696.023V1518ZM740.039 1510V1554H736.039V1522H732.039V1514H736.039V1510H740.039ZM704.039 1554V1510H708.039V1514H712.039V1522H708.039V1554H704.039ZM712.039 1534V1522H716.039V1534H712.039ZM720.039 1546H724.039V1554H720.039V1546ZM720.039 1534V1546H716.039V1534H720.039ZM728.039 1546H724.039V1534H728.039V1546ZM728.039 1534V1522H732.039V1534H728.039ZM744.023 1554V1510H764.023V1514H748.023V1530H764.023V1534H748.023V1550H764.023V1554H744.023ZM768.023 1546V1550H764.023V1546H768.023ZM768.023 1534V1538H764.023V1534H768.023ZM768.023 1538H772.023V1546H768.023V1538ZM768.023 1526V1530H764.023V1526H768.023ZM768.023 1514V1518H764.023V1514H768.023ZM768.023 1518H772.023V1526H768.023V1518ZM796.055 1554V1510H816.055V1514H800.055V1534H816.055V1538H800.055V1554H796.055ZM816.055 1534V1530H820.055V1534H816.055ZM816.055 1514H820.055V1518H816.055V1514ZM820.055 1530V1518H824.055V1530H820.055ZM828.07 1554V1542H832.07V1550H856.07V1554H828.07ZM828.07 1522V1518H832.07V1522H828.07ZM836.07 1538V1534H840.07V1538H836.07ZM836.07 1542H832.07V1538H836.07V1542ZM836.07 1514V1518H832.07V1514H836.07ZM836.07 1510H848.07V1514H836.07V1510ZM852.07 1526V1530H848.07V1526H852.07ZM852.07 1514V1518H848.07V1514H852.07ZM852.07 1518H856.07V1526H852.07V1518ZM840.07 1534V1530H848.07V1534H840.07ZM860.086 1554V1510H880.086V1514H864.086V1534H880.086V1538H864.086V1554H860.086ZM880.086 1534V1530H884.086V1534H880.086ZM880.086 1514H884.086V1518H880.086V1514ZM884.086 1530V1518H888.086V1530H884.086ZM912.117 1550V1546H924.117V1530H928.117V1546H936.117V1530H940.117V1546H956.117V1550H912.117ZM916.117 1510H952.117V1538H948.117V1514H916.117V1510ZM944.117 1542V1538H948.117V1542H944.117ZM996.117 1510H1000.12V1522H1004.12V1526H1000.12V1542H996.117V1510ZM960.117 1534V1530H972.117V1526H968.117V1522H984.117V1526H976.117V1530H992.117V1534H960.117ZM960.117 1518V1514H972.117V1510H976.117V1514H992.117V1518H988.117V1522H984.117V1518H968.117V1522H964.117V1518H960.117ZM968.117 1550H1000.12V1554H964.117V1538H968.117V1550ZM1064.13 1510H1068.13V1534H1064.13V1522H1060.13V1534H1056.13V1510H1060.13V1518H1064.13V1510ZM1028.13 1526V1518H1032.13V1526H1028.13ZM1064.13 1550V1546H1036.13V1550H1064.13ZM1064.13 1542V1538H1068.13V1554H1032.13V1538H1036.13V1542H1064.13ZM1036.13 1534V1530H1044.13V1534H1036.13ZM1036.13 1526V1530H1032.13V1526H1036.13ZM1036.13 1514V1518H1032.13V1514H1036.13ZM1036.13 1510H1044.13V1514H1036.13V1510ZM1044.13 1530V1526H1048.13V1530H1044.13ZM1044.13 1514H1048.13V1518H1044.13V1514ZM1052.13 1526H1048.13V1518H1052.13V1526ZM1132.15 1510H1136.15V1542H1132.15V1526H1124.15V1522H1132.15V1510ZM1096.15 1534V1518H1116.15V1514H1096.15V1510H1120.15V1522H1100.15V1530H1124.15V1534H1096.15ZM1104.15 1550H1136.15V1554H1100.15V1538H1104.15V1550ZM1180.15 1510H1184.15V1534H1180.15V1510ZM1144.15 1534V1530H1152.15V1534H1144.15ZM1144.15 1522V1518H1172.15V1522H1160.15V1526H1156.15V1522H1144.15ZM1180.15 1550V1554H1152.15V1550H1180.15ZM1180.15 1538V1542H1152.15V1538H1180.15ZM1180.15 1542H1184.15V1550H1180.15V1542ZM1152.15 1550H1148.15V1542H1152.15V1550ZM1152.15 1530V1526H1156.15V1530H1152.15ZM1152.15 1514V1510H1164.15V1514H1152.15ZM1160.15 1526H1164.15V1530H1160.15V1526ZM1164.15 1534V1530H1172.15V1534H1164.15ZM351.727 1598V1594H371.727V1598H351.727ZM515.742 1598V1594H535.742V1590H539.742V1594H559.742V1598H515.742ZM551.742 1614V1618H523.742V1614H551.742ZM551.742 1602V1606H523.742V1602H551.742ZM551.742 1606H555.742V1614H551.742V1606ZM523.742 1614H519.742V1606H523.742V1614ZM539.742 1578V1582H535.742V1578H519.742V1574H555.742V1578H539.742ZM539.742 1582H547.742V1586H539.742V1582ZM547.742 1590V1586H555.742V1590H547.742ZM519.742 1590V1586H527.742V1590H519.742ZM527.742 1586V1582H535.742V1586H527.742ZM599.742 1574H603.742V1618H599.742V1574ZM563.742 1606V1582H567.742V1606H563.742ZM571.742 1610H567.742V1606H571.742V1610ZM571.742 1614V1610H583.742V1614H571.742ZM571.742 1578V1582H567.742V1578H571.742ZM571.742 1574H583.742V1578H571.742V1574ZM587.742 1610H583.742V1606H587.742V1610ZM587.742 1606V1582H591.742V1606H587.742ZM587.742 1578V1582H583.742V1578H587.742ZM647.742 1574H651.742V1618H647.742V1574ZM611.742 1614V1610H615.742V1614H611.742ZM611.742 1578V1574H639.742V1578H627.742V1590H623.742V1578H611.742ZM619.742 1610H615.742V1602H619.742V1610ZM619.742 1602V1590H623.742V1602H619.742ZM627.742 1602V1590H631.742V1602H627.742ZM635.742 1610H631.742V1602H635.742V1610ZM635.742 1614V1610H639.742V1614H635.742ZM695.742 1574H699.742V1582H703.742V1586H699.742V1598H695.742V1574ZM659.742 1598V1594H671.742V1598H659.742ZM659.742 1578V1574H683.742V1586H679.742V1578H659.742ZM695.742 1614V1610H667.742V1614H695.742ZM695.742 1606V1602H699.742V1618H663.742V1602H667.742V1606H695.742ZM675.742 1590V1594H671.742V1590H675.742ZM675.742 1586H679.742V1590H675.742V1586ZM763.758 1574H767.758V1586H771.758V1590H767.758V1606H763.758V1574ZM727.758 1598V1594H735.758V1578H727.758V1574H759.758V1578H751.758V1594H759.758V1598H727.758ZM735.758 1614H767.758V1618H731.758V1602H735.758V1614ZM739.758 1594H747.758V1578H739.758V1594ZM775.758 1614V1574H799.758V1614H775.758ZM807.758 1618H803.758V1574H807.758V1594H811.758V1574H815.758V1618H811.758V1598H807.758V1618ZM779.758 1610H795.758V1578H779.758V1610ZM959.789 1606V1586H963.789V1606H959.789ZM963.789 1614V1606H967.789V1614H963.789ZM963.789 1578H967.789V1586H963.789V1578ZM967.789 1614H971.789V1618H967.789V1614ZM971.789 1574V1578H967.789V1574H971.789ZM991.773 1614V1618H979.773V1614H983.773V1582H979.773V1578H983.773V1574H987.773V1614H991.773ZM999.773 1618V1606H1003.77V1614H1027.77V1618H999.773ZM999.773 1586V1582H1003.77V1586H999.773ZM1007.77 1602V1598H1011.77V1602H1007.77ZM1007.77 1606H1003.77V1602H1007.77V1606ZM1007.77 1578V1582H1003.77V1578H1007.77ZM1007.77 1574H1019.77V1578H1007.77V1574ZM1023.77 1590V1594H1019.77V1590H1023.77ZM1023.77 1578V1582H1019.77V1578H1023.77ZM1023.77 1582H1027.77V1590H1023.77V1582ZM1011.77 1598V1594H1019.77V1598H1011.77ZM1031.79 1610H1035.79V1618H1031.79V1610ZM1035.79 1610V1602H1039.79V1610H1035.79ZM1039.79 1602V1590H1043.79V1602H1039.79ZM1043.79 1590V1582H1047.79V1590H1043.79ZM1051.79 1574V1582H1047.79V1574H1051.79ZM1055.79 1618V1606H1059.79V1614H1083.79V1618H1055.79ZM1055.79 1586V1582H1059.79V1586H1055.79ZM1063.79 1602V1598H1067.79V1602H1063.79ZM1063.79 1606H1059.79V1602H1063.79V1606ZM1063.79 1578V1582H1059.79V1578H1063.79ZM1063.79 1574H1075.79V1578H1063.79V1574ZM1079.79 1590V1594H1075.79V1590H1079.79ZM1079.79 1578V1582H1075.79V1578H1079.79ZM1079.79 1582H1083.79V1590H1079.79V1582ZM1067.79 1598V1594H1075.79V1598H1067.79ZM1087.8 1610V1602H1091.8V1610H1087.8ZM1087.8 1590V1582H1091.8V1590H1087.8ZM1095.8 1610V1614H1091.8V1610H1095.8ZM1095.8 1614H1107.8V1618H1095.8V1614ZM1095.8 1598V1602H1091.8V1598H1095.8ZM1095.8 1590V1594H1091.8V1590H1095.8ZM1095.8 1594H1107.8V1598H1095.8V1594ZM1095.8 1578V1582H1091.8V1578H1095.8ZM1095.8 1574H1107.8V1578H1095.8V1574ZM1111.8 1610V1614H1107.8V1610H1111.8ZM1111.8 1598V1602H1107.8V1598H1111.8ZM1111.8 1602H1115.8V1610H1111.8V1602ZM1111.8 1590V1594H1107.8V1590H1111.8ZM1111.8 1578V1582H1107.8V1578H1111.8ZM1111.8 1582H1115.8V1590H1111.8V1582ZM1119.82 1618V1614H1123.82V1618H1119.82ZM1123.82 1574V1578H1119.82V1574H1123.82ZM1123.82 1614V1606H1127.82V1614H1123.82ZM1123.82 1578H1127.82V1586H1123.82V1578ZM1127.82 1606V1586H1131.82V1606H1127.82Z" fill="black"/>
<path d="M509.977 1446V1490H505.977V1458H501.977V1450H505.977V1446H509.977ZM473.977 1490V1446H477.977V1450H481.977V1458H477.977V1490H473.977ZM481.977 1470V1458H485.977V1470H481.977ZM489.977 1482H493.977V1490H489.977V1482ZM489.977 1470V1482H485.977V1470H489.977ZM497.977 1482H493.977V1470H497.977V1482ZM497.977 1470V1458H501.977V1470H497.977ZM513.961 1482V1454H517.961V1482H513.961ZM545.961 1482H541.961V1454H545.961V1482ZM517.961 1482H521.961V1486H517.961V1482ZM517.961 1454V1450H521.961V1454H517.961ZM521.961 1486H537.961V1490H521.961V1486ZM521.961 1450V1446H537.961V1450H521.961ZM537.961 1486V1482H541.961V1486H537.961ZM537.961 1450H541.961V1454H537.961V1450ZM553.961 1446V1458H549.961V1446H553.961ZM553.961 1470V1458H557.961V1470H553.961ZM557.961 1482V1470H561.961V1482H557.961ZM561.961 1482H565.961V1490H561.961V1482ZM565.961 1482V1470H569.961V1482H565.961ZM569.961 1470V1458H573.961V1470H569.961ZM577.961 1446V1458H573.961V1446H577.961ZM581.977 1490V1446H585.977V1486H605.977V1490H581.977Z" fill="#5162FF"/>
<path d="M714.023 1482V1478H718.023V1482H714.023ZM714.023 1462V1454H718.023V1462H714.023ZM722.023 1482V1486H718.023V1482H722.023ZM722.023 1486H734.023V1490H722.023V1486ZM722.023 1470V1466H734.023V1470H722.023ZM722.023 1462V1466H718.023V1462H722.023ZM722.023 1450V1454H718.023V1450H722.023ZM722.023 1446H734.023V1450H722.023V1446ZM738.023 1482V1486H734.023V1482H738.023ZM738.023 1470V1474H734.023V1470H738.023ZM738.023 1474H742.023V1482H738.023V1474ZM738.023 1450V1454H734.023V1450H738.023ZM738.023 1454H742.023V1458H738.023V1454ZM746.039 1490V1446H766.039V1450H750.039V1466H766.039V1470H750.039V1486H766.039V1490H746.039ZM770.039 1482V1486H766.039V1482H770.039ZM770.039 1470V1474H766.039V1470H770.039ZM770.039 1474H774.039V1482H770.039V1474ZM770.039 1462V1466H766.039V1462H770.039ZM770.039 1450V1454H766.039V1450H770.039ZM770.039 1454H774.039V1462H770.039V1454ZM814.055 1446V1490H810.055V1458H806.055V1450H810.055V1446H814.055ZM778.055 1490V1446H782.055V1450H786.055V1458H782.055V1490H778.055ZM786.055 1470V1458H790.055V1470H786.055ZM794.055 1482H798.055V1490H794.055V1482ZM794.055 1470V1482H790.055V1470H794.055ZM802.055 1482H798.055V1470H802.055V1482ZM802.055 1470V1458H806.055V1470H802.055ZM818.039 1490V1446H838.039V1450H822.039V1466H838.039V1470H822.039V1486H838.039V1490H818.039ZM842.039 1482V1486H838.039V1482H842.039ZM842.039 1470V1474H838.039V1470H842.039ZM842.039 1474H846.039V1482H842.039V1474ZM842.039 1462V1466H838.039V1462H842.039ZM842.039 1450V1454H838.039V1450H842.039ZM842.039 1454H846.039V1462H842.039V1454ZM431.93 1546V1542H435.93V1546H431.93ZM431.93 1526V1518H435.93V1526H431.93ZM439.93 1546V1550H435.93V1546H439.93ZM439.93 1550H451.93V1554H439.93V1550ZM439.93 1534V1530H451.93V1534H439.93ZM439.93 1526V1530H435.93V1526H439.93ZM439.93 1514V1518H435.93V1514H439.93ZM439.93 1510H451.93V1514H439.93V1510ZM455.93 1546V1550H451.93V1546H455.93ZM455.93 1534V1538H451.93V1534H455.93ZM455.93 1538H459.93V1546H455.93V1538ZM455.93 1514V1518H451.93V1514H455.93ZM455.93 1518H459.93V1522H455.93V1518ZM463.945 1554V1510H483.945V1514H467.945V1530H483.945V1534H467.945V1550H483.945V1554H463.945ZM487.945 1546V1550H483.945V1546H487.945ZM487.945 1534V1538H483.945V1534H487.945ZM487.945 1538H491.945V1546H487.945V1538ZM487.945 1526V1530H483.945V1526H487.945ZM487.945 1514V1518H483.945V1514H487.945ZM487.945 1518H491.945V1526H487.945V1518ZM531.961 1510V1554H527.961V1522H523.961V1514H527.961V1510H531.961ZM495.961 1554V1510H499.961V1514H503.961V1522H499.961V1554H495.961ZM503.961 1534V1522H507.961V1534H503.961ZM511.961 1546H515.961V1554H511.961V1546ZM511.961 1534V1546H507.961V1534H511.961ZM519.961 1546H515.961V1534H519.961V1546ZM519.961 1534V1522H523.961V1534H519.961ZM535.945 1554V1510H555.945V1514H539.945V1530H555.945V1534H539.945V1550H555.945V1554H535.945ZM559.945 1546V1550H555.945V1546H559.945ZM559.945 1534V1538H555.945V1534H559.945ZM559.945 1538H563.945V1546H559.945V1538ZM559.945 1526V1530H555.945V1526H559.945ZM559.945 1514V1518H555.945V1514H559.945ZM559.945 1518H563.945V1526H559.945V1518Z" fill="#43D084"/>
<path d="M395.742 1618V1574H419.742V1578H399.742V1594H419.742V1598H399.742V1614H419.742V1618H395.742ZM427.727 1574V1586H423.727V1574H427.727ZM427.727 1598V1586H431.727V1598H427.727ZM431.727 1610V1598H435.727V1610H431.727ZM435.727 1610H439.727V1618H435.727V1610ZM439.727 1610V1598H443.727V1610H439.727ZM443.727 1598V1586H447.727V1598H443.727ZM451.727 1574V1586H447.727V1574H451.727ZM491.742 1574V1618H487.742V1586H483.742V1578H487.742V1574H491.742ZM455.742 1618V1574H459.742V1578H463.742V1586H459.742V1618H455.742ZM463.742 1598V1586H467.742V1598H463.742ZM471.742 1610H475.742V1618H471.742V1610ZM471.742 1598V1610H467.742V1598H471.742ZM479.742 1610H475.742V1598H479.742V1610ZM479.742 1598V1586H483.742V1598H479.742Z" fill="#66B459"/>
<path d="M843.773 1598V1594H863.773V1590H867.773V1594H887.773V1598H843.773ZM879.773 1614V1618H851.773V1614H879.773ZM879.773 1602V1606H851.773V1602H879.773ZM879.773 1606H883.773V1614H879.773V1606ZM851.773 1614H847.773V1606H851.773V1614ZM867.773 1578V1582H863.773V1578H847.773V1574H883.773V1578H867.773ZM867.773 1582H875.773V1586H867.773V1582ZM875.773 1590V1586H883.773V1590H875.773ZM847.773 1590V1586H855.773V1590H847.773ZM855.773 1586V1582H863.773V1586H855.773ZM891.773 1614V1610H903.773V1602H895.773V1586H927.773V1578H895.773V1574H931.773V1590H899.773V1598H931.773V1602H923.773V1610H935.773V1614H891.773ZM907.773 1610H919.773V1602H907.773V1610Z" fill="#E36363"/>
<path d="M17.9181 2037.96H40.9556V2066.19H17.9181V2037.96Z" fill="black"/>
<path d="M17.9181 2674.81H40.9556V2703.04H17.9181V2674.81Z" fill="black"/>
<path d="M1459.04 2037.96H1482.08V2066.19H1459.04V2037.96Z" fill="black"/>
<path d="M1459.04 2674.81H1482.08V2703.04H1459.04V2674.81Z" fill="black"/>
<path d="M0 2063.06H20.4778V2677.94H0V2063.06Z" fill="black"/>
<path d="M1479.52 2063.06H1500V2677.94H1479.52V2063.06Z" fill="black"/>
<path d="M1461.6 2699.9V2725L38.3959 2725V2699.9L1461.6 2699.9Z" fill="black"/>
<path d="M1461.6 2016V2041.1L38.3959 2041.1V2016L1461.6 2016Z" fill="black"/>
<path d="M19.9998 2047.82H55.8594V2688.3H19.9998V2047.82Z" fill="#8CA5A9"/>
<path d="M1480 2688.3H1444.14V2047.82L1480 2047.82V2688.3Z" fill="#8CA5A9"/>
<path d="M1459.51 2021.4V2067.63L40.491 2067.63L40.491 2021.4L1459.51 2021.4Z" fill="#8CA5A9"/>
<path d="M40.491 2714.71L40.491 2668.49L1459.51 2668.49V2714.71L40.491 2714.71Z" fill="#8CA5A9"/>
<rect x="56" y="2030.86" width="1388" height="673.38" fill="#F8F8F8"/>
<rect x="76.9998" y="2036.26" width="1346" height="657.691" fill="#D2DDDF"/>
<path d="M17.9181 2946.96H40.9556V2975.19H17.9181V2946.96Z" fill="black"/>
<path d="M17.9181 3583.81H40.9556V3612.04H17.9181V3583.81Z" fill="black"/>
<path d="M1459.04 2946.96H1482.08V2975.19H1459.04V2946.96Z" fill="black"/>
<path d="M1459.04 3583.81H1482.08V3612.04H1459.04V3583.81Z" fill="black"/>
<path d="M0 2972.06H20.4778V3586.94H0V2972.06Z" fill="black"/>
<path d="M1479.52 2972.06H1500V3586.94H1479.52V2972.06Z" fill="black"/>
<path d="M1461.6 3608.9V3634L38.3959 3634V3608.9L1461.6 3608.9Z" fill="black"/>
<path d="M1461.6 2925V2950.1L38.3959 2950.1V2925L1461.6 2925Z" fill="black"/>
<path d="M19.9998 2956.82H55.8594V3597.3H19.9998V2956.82Z" fill="#8CA5A9"/>
<path d="M1480 3597.3H1444.14V2956.82L1480 2956.82V3597.3Z" fill="#8CA5A9"/>
<path d="M1459.51 2930.4V2976.63L40.491 2976.63L40.491 2930.4L1459.51 2930.4Z" fill="#8CA5A9"/>
<path d="M40.491 3623.71L40.491 3577.49L1459.51 3577.49V3623.71L40.491 3623.71Z" fill="#8CA5A9"/>
<rect x="56" y="2939.86" width="1388" height="673.38" fill="#F8F8F8"/>
<rect x="76.9998" y="2945.26" width="1346" height="657.691" fill="#D2DDDF"/>
<path d="M610.781 3217.33V3212H616.115V3217.33H610.781ZM616.115 3212V3206.67H626.781V3212H616.115ZM626.781 3217.33V3212H632.115V3217.33H626.781ZM632.115 3217.33H642.781V3222.67H632.115V3217.33ZM642.781 3217.33V3212H648.115V3217.33H642.781ZM680.156 3244V3228H685.49V3238.67H717.49V3244H680.156ZM680.156 3201.33V3196H685.49V3201.33H680.156ZM690.823 3222.67V3217.33H696.156V3222.67H690.823ZM690.823 3228H685.49V3222.67H690.823V3228ZM690.823 3190.67V3196H685.49V3190.67H690.823ZM690.823 3185.33H706.823V3190.67H690.823V3185.33ZM712.156 3206.67V3212H706.823V3206.67H712.156ZM712.156 3190.67V3196H706.823V3190.67H712.156ZM712.156 3196H717.49V3206.67H712.156V3196ZM696.156 3217.33V3212H706.823V3217.33H696.156ZM722.844 3233.33V3196H728.177V3233.33H722.844ZM728.177 3233.33H733.51V3238.67H728.177V3233.33ZM728.177 3196V3190.67H733.51V3196H728.177ZM733.51 3238.67H749.51V3244H733.51V3238.67ZM733.51 3190.67V3185.33H749.51V3190.67H733.51ZM749.51 3238.67V3233.33H754.844V3238.67H749.51ZM749.51 3190.67H754.844V3196H749.51V3190.67ZM754.844 3233.33V3196H760.177V3233.33H754.844ZM765.531 3244V3228H770.865V3238.67H802.865V3244H765.531ZM765.531 3201.33V3196H770.865V3201.33H765.531ZM776.198 3222.67V3217.33H781.531V3222.67H776.198ZM776.198 3228H770.865V3222.67H776.198V3228ZM776.198 3190.67V3196H770.865V3190.67H776.198ZM776.198 3185.33H792.198V3190.67H776.198V3185.33ZM797.531 3206.67V3212H792.198V3206.67H797.531ZM797.531 3190.67V3196H792.198V3190.67H797.531ZM797.531 3196H802.865V3206.67H797.531V3196ZM781.531 3217.33V3212H792.198V3217.33H781.531ZM808.219 3212V3196H813.552V3212H808.219ZM818.885 3244V3238.67H829.552V3244H818.885ZM818.885 3217.33H813.552V3212H818.885V3217.33ZM818.885 3222.67V3217.33H834.885V3222.67H818.885ZM818.885 3190.67V3196H813.552V3190.67H818.885ZM818.885 3185.33H834.885V3190.67H818.885V3185.33ZM829.552 3238.67V3233.33H834.885V3238.67H829.552ZM840.219 3233.33H834.885V3222.67H840.219V3233.33ZM840.219 3217.33H834.885V3212H840.219V3196H845.552V3222.67H840.219V3217.33ZM840.219 3190.67V3196H834.885V3190.67H840.219ZM898.906 3185.33H904.24V3228H898.906V3206.67H882.906V3201.33H898.906V3196H882.906V3190.67H898.906V3185.33ZM856.24 3185.33V3212H888.24V3217.33H850.906V3185.33H856.24ZM856.24 3244V3222.67H861.573V3238.67H904.24V3244H856.24ZM429.461 3352V3348H449.461V3352H429.461ZM661.523 3356V3352H633.523V3348H661.523V3344H665.523V3348H669.523V3352H665.523V3356H661.523ZM661.523 3360H657.523V3356H661.523V3360ZM661.523 3344H657.523V3340H661.523V3344ZM653.523 3364V3360H657.523V3364H653.523ZM653.523 3340V3336H657.523V3340H653.523ZM917.57 3368V3364H937.57V3356H921.57V3340H953.57V3332H921.57V3328H957.57V3344H925.57V3352H957.57V3356H941.57V3364H961.57V3368H917.57ZM1001.57 3328H1005.57V3372H1001.57V3328ZM965.57 3364V3360H997.57V3364H965.57ZM965.57 3344V3336H969.57V3344H965.57ZM973.57 3352V3348H985.57V3352H973.57ZM973.57 3344V3348H969.57V3344H973.57ZM973.57 3332V3336H969.57V3332H973.57ZM973.57 3328H985.57V3332H973.57V3328ZM989.57 3344V3348H985.57V3344H989.57ZM989.57 3332V3336H985.57V3332H989.57ZM989.57 3336H993.57V3344H989.57V3336ZM1089.6 3328H1093.6V3360H1089.6V3340H1081.6V3336H1089.6V3328ZM1053.6 3352V3348H1057.6V3352H1053.6ZM1053.6 3332V3328H1081.6V3332H1069.6V3340H1065.6V3332H1053.6ZM1061.6 3368H1093.6V3372H1057.6V3356H1061.6V3368ZM1061.6 3344V3348H1057.6V3344H1061.6ZM1061.6 3340H1065.6V3344H1061.6V3340ZM1069.6 3344V3340H1073.6V3344H1069.6ZM1077.6 3352V3348H1081.6V3352H1077.6ZM1077.6 3344V3348H1073.6V3344H1077.6ZM1137.6 3328H1141.6V3340H1145.6V3344H1141.6V3360H1137.6V3328ZM1101.6 3352V3348H1113.6V3344H1109.6V3340H1125.6V3344H1117.6V3348H1133.6V3352H1101.6ZM1101.6 3336V3332H1113.6V3328H1117.6V3332H1133.6V3336H1129.6V3340H1125.6V3336H1109.6V3340H1105.6V3336H1101.6ZM1109.6 3368H1141.6V3372H1105.6V3356H1109.6V3368Z" fill="black"/>
<path d="M473.477 3364V3360H477.477V3364H473.477ZM473.477 3344V3336H477.477V3344H473.477ZM481.477 3364V3368H477.477V3364H481.477ZM481.477 3368H493.477V3372H481.477V3368ZM481.477 3352V3348H493.477V3352H481.477ZM481.477 3344V3348H477.477V3344H481.477ZM481.477 3332V3336H477.477V3332H481.477ZM481.477 3328H493.477V3332H481.477V3328ZM497.477 3364V3368H493.477V3364H497.477ZM497.477 3352V3356H493.477V3352H497.477ZM497.477 3356H501.477V3364H497.477V3356ZM497.477 3332V3336H493.477V3332H497.477ZM497.477 3336H501.477V3340H497.477V3336ZM505.492 3372V3328H525.492V3332H509.492V3348H525.492V3352H509.492V3368H525.492V3372H505.492ZM529.492 3364V3368H525.492V3364H529.492ZM529.492 3352V3356H525.492V3352H529.492ZM529.492 3356H533.492V3364H529.492V3356ZM529.492 3344V3348H525.492V3344H529.492ZM529.492 3332V3336H525.492V3332H529.492ZM529.492 3336H533.492V3344H529.492V3336ZM573.508 3328V3372H569.508V3340H565.508V3332H569.508V3328H573.508ZM537.508 3372V3328H541.508V3332H545.508V3340H541.508V3372H537.508ZM545.508 3352V3340H549.508V3352H545.508ZM553.508 3364H557.508V3372H553.508V3364ZM553.508 3352V3364H549.508V3352H553.508ZM561.508 3364H557.508V3352H561.508V3364ZM561.508 3352V3340H565.508V3352H561.508ZM577.492 3372V3328H597.492V3332H581.492V3348H597.492V3352H581.492V3368H597.492V3372H577.492ZM601.492 3364V3368H597.492V3364H601.492ZM601.492 3352V3356H597.492V3352H601.492ZM601.492 3356H605.492V3364H601.492V3356ZM601.492 3344V3348H597.492V3344H601.492ZM601.492 3332V3336H597.492V3332H601.492ZM601.492 3336H605.492V3344H601.492V3336Z" fill="#43D084"/>
<path d="M701.539 3328H737.539V3348H741.539V3352H697.539V3348H717.539V3340H701.539V3336H733.539V3332H701.539V3328ZM701.539 3372V3356H705.539V3368H737.539V3372H701.539ZM733.539 3348V3340H721.539V3348H733.539ZM745.539 3348V3344H765.539V3336H769.539V3344H789.539V3348H745.539ZM781.539 3360V3356H749.539V3352H785.539V3364H753.539V3368H785.539V3372H749.539V3360H781.539ZM769.539 3332H777.539V3336H769.539V3332ZM769.539 3328V3332H765.539V3328H769.539ZM777.539 3336H785.539V3340H777.539V3336ZM749.539 3340V3336H757.539V3340H749.539ZM757.539 3336V3332H765.539V3336H757.539ZM813.555 3372V3328H833.555V3332H817.555V3348H833.555V3352H817.555V3368H833.555V3372H813.555ZM837.555 3364V3368H833.555V3364H837.555ZM837.555 3352V3356H833.555V3352H837.555ZM837.555 3356H841.555V3364H837.555V3356ZM837.555 3344V3348H833.555V3344H837.555ZM837.555 3332V3336H833.555V3332H837.555ZM837.555 3336H841.555V3344H837.555V3336ZM881.57 3328V3372H877.57V3340H873.57V3332H877.57V3328H881.57ZM845.57 3372V3328H849.57V3332H853.57V3340H849.57V3372H845.57ZM853.57 3352V3340H857.57V3352H853.57ZM861.57 3364H865.57V3372H861.57V3364ZM861.57 3352V3364H857.57V3352H861.57ZM869.57 3364H865.57V3352H869.57V3364ZM869.57 3352V3340H873.57V3352H869.57ZM885.555 3372V3328H905.555V3332H889.555V3348H905.555V3352H889.555V3368H905.555V3372H885.555ZM909.555 3364V3368H905.555V3364H909.555ZM909.555 3352V3356H905.555V3352H909.555ZM909.555 3356H913.555V3364H909.555V3356ZM909.555 3344V3348H905.555V3344H909.555ZM909.555 3332V3336H905.555V3332H909.555ZM909.555 3336H913.555V3344H909.555V3336Z" fill="#5162FF"/>
<path d="M645.469 2282V2266H650.802V2276.67H682.802V2282H645.469ZM645.469 2239.33V2234H650.802V2239.33H645.469ZM656.135 2260.67V2255.33H661.469V2260.67H656.135ZM656.135 2266H650.802V2260.67H656.135V2266ZM656.135 2228.67V2234H650.802V2228.67H656.135ZM656.135 2223.33H672.135V2228.67H656.135V2223.33ZM677.469 2244.67V2250H672.135V2244.67H677.469ZM677.469 2228.67V2234H672.135V2228.67H677.469ZM677.469 2234H682.802V2244.67H677.469V2234ZM661.469 2255.33V2250H672.135V2255.33H661.469ZM688.156 2271.33V2234H693.49V2271.33H688.156ZM693.49 2271.33H698.823V2276.67H693.49V2271.33ZM693.49 2234V2228.67H698.823V2234H693.49ZM698.823 2276.67H714.823V2282H698.823V2276.67ZM698.823 2228.67V2223.33H714.823V2228.67H698.823ZM714.823 2276.67V2271.33H720.156V2276.67H714.823ZM714.823 2228.67H720.156V2234H714.823V2228.67ZM720.156 2271.33V2234H725.49V2271.33H720.156ZM730.844 2282V2266H736.177V2276.67H768.177V2282H730.844ZM730.844 2239.33V2234H736.177V2239.33H730.844ZM741.51 2260.67V2255.33H746.844V2260.67H741.51ZM741.51 2266H736.177V2260.67H741.51V2266ZM741.51 2228.67V2234H736.177V2228.67H741.51ZM741.51 2223.33H757.51V2228.67H741.51V2223.33ZM762.844 2244.67V2250H757.51V2244.67H762.844ZM762.844 2228.67V2234H757.51V2228.67H762.844ZM762.844 2234H768.177V2244.67H762.844V2234ZM746.844 2255.33V2250H757.51V2255.33H746.844ZM773.531 2271.33V2244.67H778.865V2250H784.198V2255.33H778.865V2271.33H773.531ZM784.198 2271.33V2276.67H778.865V2271.33H784.198ZM784.198 2276.67H800.198V2282H784.198V2276.67ZM784.198 2244.67H778.865V2234H784.198V2244.67ZM784.198 2250V2244.67H800.198V2250H784.198ZM784.198 2234V2228.67H789.531V2234H784.198ZM805.531 2271.33V2276.67H800.198V2271.33H805.531ZM805.531 2255.33H800.198V2250H805.531V2255.33ZM789.531 2223.33H800.198V2228.67H789.531V2223.33ZM810.865 2271.33H805.531V2255.33H810.865V2271.33ZM864.219 2223.33H869.552V2266H864.219V2244.67H848.219V2239.33H864.219V2234H848.219V2228.67H864.219V2223.33ZM821.552 2223.33V2250H853.552V2255.33H816.219V2223.33H821.552ZM821.552 2282V2260.67H826.885V2276.67H869.552V2282H821.552ZM546.586 2432V2428H566.586V2432H546.586ZM802.617 2452V2408H822.617V2412H806.617V2448H822.617V2452H802.617ZM822.617 2448V2444H826.617V2448H822.617ZM822.617 2412H826.617V2416H822.617V2412ZM826.617 2444V2416H830.617V2444H826.617ZM834.633 2452V2440H838.633V2452H834.633ZM838.633 2440V2424H842.633V2436H854.633V2424H858.633V2440H838.633ZM846.633 2408H850.633V2412H846.633V2408ZM842.633 2424V2412H846.633V2424H842.633ZM850.633 2424V2412H854.633V2424H850.633ZM858.633 2452V2440H862.633V2452H858.633ZM866.648 2452V2408H886.648V2412H870.648V2432H886.648V2436H870.648V2452H866.648ZM886.648 2432V2428H890.648V2432H886.648ZM886.648 2412H890.648V2416H886.648V2412ZM890.648 2428V2416H894.648V2428H890.648ZM898.664 2452V2408H918.664V2412H902.664V2432H918.664V2436H902.664V2452H898.664ZM918.664 2432V2428H922.664V2432H918.664ZM918.664 2412H922.664V2416H918.664V2412ZM922.664 2428V2416H926.664V2428H922.664ZM986.695 2408H990.695V2440H986.695V2424H978.695V2420H986.695V2408ZM950.695 2432V2416H970.695V2412H950.695V2408H974.695V2420H954.695V2428H978.695V2432H950.695ZM958.695 2448H990.695V2452H954.695V2436H958.695V2448ZM1034.7 2408H1038.7V2432H1034.7V2408ZM998.695 2432V2428H1006.7V2432H998.695ZM998.695 2420V2416H1026.7V2420H1014.7V2424H1010.7V2420H998.695ZM1034.7 2448V2452H1006.7V2448H1034.7ZM1034.7 2436V2440H1006.7V2436H1034.7ZM1034.7 2440H1038.7V2448H1034.7V2440ZM1006.7 2448H1002.7V2440H1006.7V2448ZM1006.7 2428V2424H1010.7V2428H1006.7ZM1006.7 2412V2408H1018.7V2412H1006.7ZM1014.7 2424H1018.7V2428H1014.7V2424ZM1018.7 2432V2428H1026.7V2432H1018.7ZM487.492 2496V2492H507.492V2496H487.492ZM1031.57 2472H1035.57V2504H1031.57V2488H1023.57V2484H1031.57V2472ZM995.57 2496V2480H1015.57V2476H995.57V2472H1019.57V2484H999.57V2492H1023.57V2496H995.57ZM1003.57 2512H1035.57V2516H999.57V2500H1003.57V2512ZM1079.57 2472H1083.57V2496H1079.57V2472ZM1043.57 2496V2492H1051.57V2496H1043.57ZM1043.57 2484V2480H1071.57V2484H1059.57V2488H1055.57V2484H1043.57ZM1079.57 2512V2516H1051.57V2512H1079.57ZM1079.57 2500V2504H1051.57V2500H1079.57ZM1079.57 2504H1083.57V2512H1079.57V2504ZM1051.57 2512H1047.57V2504H1051.57V2512ZM1051.57 2492V2488H1055.57V2492H1051.57ZM1051.57 2476V2472H1063.57V2476H1051.57ZM1059.57 2488H1063.57V2492H1059.57V2488ZM1063.57 2496V2492H1071.57V2496H1063.57Z" fill="black"/>
<path d="M594.602 2408H630.602V2428H594.602V2408ZM590.602 2436V2432H634.602V2436H614.602V2452H610.602V2436H590.602ZM626.602 2424V2412H598.602V2424H626.602ZM674.602 2408H678.602V2436H642.602V2408H646.602V2416H674.602V2408ZM638.602 2448V2444H682.602V2448H638.602ZM674.602 2432V2420H646.602V2432H674.602ZM690.602 2408H726.602V2412H694.602V2416H726.602V2420H694.602V2424H726.602V2428H690.602V2408ZM686.602 2436V2432H730.602V2436H710.602V2452H706.602V2436H686.602ZM770.602 2408H774.602V2440H770.602V2424H758.602V2416H762.602V2420H770.602V2408ZM734.602 2424V2416H738.602V2424H734.602ZM742.602 2448H774.602V2452H738.602V2436H742.602V2448ZM742.602 2432V2428H754.602V2432H742.602ZM742.602 2424V2428H738.602V2424H742.602ZM742.602 2412V2416H738.602V2412H742.602ZM742.602 2408H754.602V2412H742.602V2408ZM758.602 2424V2428H754.602V2424H758.602ZM758.602 2412V2416H754.602V2412H758.602Z" fill="#D6B916"/>
<path d="M531.508 2508V2504H535.508V2508H531.508ZM531.508 2488V2480H535.508V2488H531.508ZM539.508 2508V2512H535.508V2508H539.508ZM539.508 2512H551.508V2516H539.508V2512ZM539.508 2496V2492H551.508V2496H539.508ZM539.508 2488V2492H535.508V2488H539.508ZM539.508 2476V2480H535.508V2476H539.508ZM539.508 2472H551.508V2476H539.508V2472ZM555.508 2508V2512H551.508V2508H555.508ZM555.508 2496V2500H551.508V2496H555.508ZM555.508 2500H559.508V2508H555.508V2500ZM555.508 2476V2480H551.508V2476H555.508ZM555.508 2480H559.508V2484H555.508V2480ZM563.523 2516V2472H583.523V2476H567.523V2492H583.523V2496H567.523V2512H583.523V2516H563.523ZM587.523 2508V2512H583.523V2508H587.523ZM587.523 2496V2500H583.523V2496H587.523ZM587.523 2500H591.523V2508H587.523V2500ZM587.523 2488V2492H583.523V2488H587.523ZM587.523 2476V2480H583.523V2476H587.523ZM587.523 2480H591.523V2488H587.523V2480ZM631.539 2472V2516H627.539V2484H623.539V2476H627.539V2472H631.539ZM595.539 2516V2472H599.539V2476H603.539V2484H599.539V2516H595.539ZM603.539 2496V2484H607.539V2496H603.539ZM611.539 2508H615.539V2516H611.539V2508ZM611.539 2496V2508H607.539V2496H611.539ZM619.539 2508H615.539V2496H619.539V2508ZM619.539 2496V2484H623.539V2496H619.539ZM635.523 2516V2472H655.523V2476H639.523V2492H655.523V2496H639.523V2512H655.523V2516H635.523ZM659.523 2508V2512H655.523V2508H659.523ZM659.523 2496V2500H655.523V2496H659.523ZM659.523 2500H663.523V2508H659.523V2500ZM659.523 2488V2492H655.523V2488H659.523ZM659.523 2476V2480H655.523V2476H659.523ZM659.523 2480H663.523V2488H659.523V2480ZM723.555 2472H727.555V2504H723.555V2488H719.555V2504H715.555V2472H719.555V2484H723.555V2472ZM687.555 2496V2480H707.555V2476H687.555V2472H711.555V2484H691.555V2492H711.555V2496H687.555ZM695.555 2512H727.555V2516H691.555V2500H695.555V2512ZM771.555 2472H775.555V2496H771.555V2472ZM735.555 2496V2472H763.555V2476H739.555V2492H763.555V2496H735.555ZM771.555 2512V2516H743.555V2512H771.555ZM739.555 2512V2504H743.555V2512H739.555ZM771.555 2500V2504H743.555V2500H771.555ZM771.555 2504H775.555V2512H771.555V2504ZM783.555 2512V2508H827.555V2512H783.555ZM787.555 2472H823.555V2476H815.555V2496H823.555V2500H787.555V2496H795.555V2476H787.555V2472ZM799.555 2496H811.555V2476H799.555V2496ZM831.555 2512V2508H851.555V2500H835.555V2484H867.555V2476H835.555V2472H871.555V2488H839.555V2496H871.555V2500H855.555V2508H875.555V2512H831.555ZM879.555 2512V2508H899.555V2500H883.555V2472H919.555V2476H887.555V2484H919.555V2488H887.555V2496H919.555V2500H903.555V2508H923.555V2512H879.555ZM927.555 2492V2488H947.555V2484H931.555V2480H963.555V2476H931.555V2472H967.555V2488H971.555V2492H927.555ZM963.555 2504V2500H931.555V2496H967.555V2508H935.555V2512H967.555V2516H931.555V2504H963.555ZM963.555 2488V2484H951.555V2488H963.555Z" fill="#43D084"/>
</svg>
