<svg width="450" height="1847" viewBox="0 0 450 1847" fill="none" xmlns="http://www.w3.org/2000/svg">
<rect x="103" width="244" height="1731.23" fill="#43D084"/>
<rect y="1582.22" width="103" height="38.5908" fill="#43D084"/>
<rect width="103" height="38.5908" transform="matrix(-1 0 0 1 450 1582.22)" fill="#43D084"/>
<rect x="31" y="1620.81" width="72" height="38.5908" fill="#43D084"/>
<rect width="72" height="38.5908" transform="matrix(-1 0 0 1 419 1620.81)" fill="#43D084"/>
<rect width="77.1817" height="36" transform="matrix(1.11243e-08 -1 -1 -1.27831e-08 278 1808.41)" fill="#43D084"/>
<rect width="38.5908" height="36" transform="matrix(1.11243e-08 -1 -1 -1.27831e-08 314 1769.82)" fill="#43D084"/>
<rect x="65" y="1659.41" width="38" height="38.5908" fill="#43D084"/>
<rect width="38" height="38.5908" transform="matrix(-1 0 0 1 385 1659.41)" fill="#43D084"/>
<rect x="139" y="1731.23" width="103" height="38.5908" fill="#43D084"/>
<rect x="170" y="1769.82" width="72" height="38.5908" fill="#43D084"/>
<rect x="204" y="1808.41" width="38" height="38.5908" fill="#43D084"/>
</svg>
