<svg width="1500" height="360" viewBox="0 0 1500 360" fill="none" xmlns="http://www.w3.org/2000/svg">
<path d="M17.9181 11.1505H40.9556V25.4868H17.9181V11.1505Z" fill="black"/>
<path d="M17.9181 334.513H40.9556V348.85H17.9181V334.513Z" fill="black"/>
<path d="M1459.04 11.1505H1482.08V25.4868H1459.04V11.1505Z" fill="black"/>
<path d="M1459.04 334.513H1482.08V348.85H1459.04V334.513Z" fill="black"/>
<path d="M0 23.8938H20.4778V336.106H0V23.8938Z" fill="black"/>
<path d="M1479.52 23.8938H1500V336.106H1479.52V23.8938Z" fill="black"/>
<path d="M1461.6 347.257V360L38.3959 360V347.257L1461.6 347.257Z" fill="black"/>
<path d="M1461.6 3.87136e-05V12.7434L38.3959 12.7434V0L1461.6 3.87136e-05Z" fill="black"/>
<path d="M20.4775 25.4875H56.3137V334.514H20.4775V25.4875Z" fill="#8CA5A9"/>
<path d="M1479.52 334.514H1443.69V25.4875L1479.52 25.4875V334.514Z" fill="#8CA5A9"/>
<path d="M1459.04 12.7442V35.0451L40.9554 35.0451L40.9554 12.7441L1459.04 12.7442Z" fill="#8CA5A9"/>
<path d="M40.9554 347.257L40.9554 324.956L1459.04 324.957V347.257L40.9554 347.257Z" fill="#8CA5A9"/>
<rect x="56.314" y="35.0439" width="1387.37" height="289.911" fill="#F8F8F8"/>
<rect x="76.7915" y="47.7881" width="1346.42" height="264.425" fill="#D2DDDF"/>
</svg>
